<svg xmlns="http://www.w3.org/2000/svg" xmlns:v="https://svgstorm.com"
viewBox = "0 0 512 512"
width="512"
height="512">
<g fill="None" fill-opacity="0.0" stroke="#000000" stroke-opacity="0.00" stroke-width="0.3"><path d="
M 0.00 175.00 
C 5.37 163.63 15.80 166.74 27.00 166.00 C 38.20 165.26 52.63 167.57 64.00 166.00 C 75.37 164.43 90.11 169.44 101.00 166.00
C 109.85 163.20 116.44 152.65 125.25 148.25 C 134.06 143.84 142.08 136.07 150.70 130.70 C 159.32 125.32 167.31 118.61 176.08 113.08 C 184.85 107.55 191.48 101.23 200.70 95.70 C 209.91 90.16 215.88 83.40 226.08 78.08 C 236.28 72.77 239.06 64.35 252.03 61.03 C 264.99 57.70 273.88 71.56 271.00 85.00 C 268.12 98.44 272.26 113.11 271.00 127.00 C 269.74 140.89 271.55 155.87 271.00 170.00 C 270.45 184.13 271.21 198.77 271.00 213.00 C 270.79 227.23 271.00 241.75 271.00 256.00
C 271.00 270.07 270.80 283.91 271.00 298.00 C 271.20 312.09 270.49 326.93 271.00 341.00 C 271.51 355.07 269.85 370.14 271.00 384.00 C 272.15 397.86 268.36 412.58 271.00 426.00 C 273.64 439.42 266.31 453.55 253.00 451.00 C 239.69 448.45 236.98 439.58 226.75 434.25 C 216.52 428.92 210.49 422.29 201.25 416.75 C 192.02 411.21 185.55 404.77 176.75 399.25 C 167.96 393.72 159.91 387.10 151.25 381.75 C 142.60 376.39 134.80 368.45 125.92 364.08 C 117.03 359.71 109.87 348.80 101.00 346.00
C 90.26 342.60 76.28 347.50 65.00 346.00 C 53.72 344.50 39.20 346.72 28.00 346.00 C 16.80 345.28 5.34 348.60 0.00 337.00
L 0.00 512.00
L 512.00 512.00
L 512.00 337.00
C 508.39 346.53 489.19 351.36 484.23 339.77 C 479.27 328.18 482.64 312.36 482.00 299.00 C 481.36 285.64 482.00 269.60 482.00 256.00
C 482.00 242.39 481.37 226.37 482.00 213.00 C 482.63 199.63 479.29 183.86 484.25 172.25 C 489.21 160.65 508.38 165.48 512.00 175.00
L 512.00 0.00
L 0.00 0.00
L 0.00 175.00
M 391.00 256.00 
C 391.00 273.48 391.10 292.69 391.00 310.00 C 390.90 327.31 391.28 347.33 391.00 364.00 C 390.72 380.67 361.28 380.67 361.01 363.99 C 360.74 347.31 361.10 327.31 361.00 310.00 C 360.90 292.69 361.00 273.48 361.00 256.00
C 361.00 238.52 360.90 219.31 361.00 202.00 C 361.10 184.69 360.72 164.67 361.00 148.00 C 361.28 131.33 390.72 131.33 390.99 148.01 C 391.26 164.69 390.90 184.69 391.00 202.00 C 391.10 219.31 391.00 238.52 391.00 256.00
M 451.00 256.00 
C 451.00 270.88 451.89 291.72 451.00 306.00 C 450.11 320.28 421.88 320.21 421.08 305.92 C 420.27 291.64 421.00 270.87 421.00 256.00
C 421.00 241.12 420.10 220.28 421.00 206.00 C 421.90 191.72 450.12 191.79 450.92 206.08 C 451.73 220.36 451.00 241.12 451.00 256.00
M 331.00 256.00 
C 331.00 270.89 337.50 300.99 316.00 301.00 C 294.50 301.01 301.00 270.88 301.00 256.00
C 301.00 241.11 294.50 211.01 316.00 211.00 C 337.50 210.99 331.00 241.12 331.00 256.00 Z"/>
</g>
<g fill="None" fill-opacity="0.0" stroke="#7D6BE0" stroke-opacity="1.00" stroke-width="0.3"><path d="
M 101.00 166.00 
C 97.88 174.90 102.46 186.51 101.00 196.00 C 99.54 205.49 101.76 216.27 101.00 226.00 C 100.24 235.73 101.57 246.20 101.00 256.00
C 67.33 256.00 33.67 256.00 0.00 256.00
L 0.00 337.00
C 5.34 348.60 16.80 345.28 28.00 346.00 C 39.20 346.72 53.72 344.50 65.00 346.00 C 76.28 347.50 90.26 342.60 101.00 346.00
C 105.38 342.94 100.75 330.91 102.00 325.00 C 103.25 319.09 101.42 308.85 102.00 302.00 C 102.58 295.15 101.70 286.24 102.00 279.00 C 102.30 271.76 101.77 263.35 102.00 256.00
C 158.33 256.00 214.67 256.00 271.00 256.00
C 271.00 241.75 270.79 227.23 271.00 213.00 C 271.21 198.77 270.45 184.13 271.00 170.00 C 271.55 155.87 269.74 140.89 271.00 127.00 C 272.26 113.11 268.12 98.44 271.00 85.00 C 273.88 71.56 264.99 57.70 252.03 61.03 C 239.06 64.35 236.28 72.77 226.08 78.08 C 215.88 83.40 209.91 90.16 200.70 95.70 C 191.48 101.23 184.85 107.55 176.08 113.08 C 167.31 118.61 159.32 125.32 150.70 130.70 C 142.08 136.07 134.06 143.84 125.25 148.25 C 116.44 152.65 109.85 163.20 101.00 166.00 Z"/>
</g>
<g fill="None" fill-opacity="0.0" stroke="#ECB600" stroke-opacity="0.99" stroke-width="0.3"><path d="
M 361.00 256.00 
C 371.00 256.00 381.00 256.00 391.00 256.00
C 391.00 238.52 391.10 219.31 391.00 202.00 C 390.90 184.69 391.26 164.69 390.99 148.01 C 390.72 131.33 361.28 131.33 361.00 148.00 C 360.72 164.67 361.10 184.69 361.00 202.00 C 360.90 219.31 361.00 238.52 361.00 256.00 Z"/>
</g>
<g fill="None" fill-opacity="0.0" stroke="#988EE1" stroke-opacity="1.00" stroke-width="0.3"><path d="
M 0.00 175.00 
L 0.00 256.00
C 33.67 256.00 67.33 256.00 101.00 256.00
C 101.57 246.20 100.24 235.73 101.00 226.00 C 101.76 216.27 99.54 205.49 101.00 196.00 C 102.46 186.51 97.88 174.90 101.00 166.00
C 90.11 169.44 75.37 164.43 64.00 166.00 C 52.63 167.57 38.20 165.26 27.00 166.00 C 15.80 166.74 5.37 163.63 0.00 175.00 Z"/>
</g>
<g fill="None" fill-opacity="0.0" stroke="#ECB600" stroke-opacity="0.99" stroke-width="0.3"><path d="
M 482.00 256.00 
C 492.00 256.00 502.00 256.00 512.00 256.00
L 512.00 175.00
C 508.38 165.48 489.21 160.65 484.25 172.25 C 479.29 183.86 482.63 199.63 482.00 213.00 C 481.37 226.37 482.00 242.39 482.00 256.00 Z"/>
</g>
<g fill="None" fill-opacity="0.0" stroke="#ECB600" stroke-opacity="0.98" stroke-width="0.3"><path d="
M 421.00 256.00 
C 431.00 256.00 441.00 256.00 451.00 256.00
C 451.00 241.12 451.73 220.36 450.92 206.08 C 450.12 191.79 421.90 191.72 421.00 206.00 C 420.10 220.28 421.00 241.12 421.00 256.00 Z"/>
</g>
<g fill="None" fill-opacity="0.0" stroke="#ECB600" stroke-opacity="0.98" stroke-width="0.3"><path d="
M 301.00 256.00 
C 311.00 256.00 321.00 256.00 331.00 256.00
C 331.00 241.12 337.50 210.99 316.00 211.00 C 294.50 211.01 301.00 241.11 301.00 256.00 Z"/>
</g>
<g fill="None" fill-opacity="0.0" stroke="#6D5ACB" stroke-opacity="1.00" stroke-width="0.3"><path d="
M 101.00 346.00 
C 109.87 348.80 117.03 359.71 125.92 364.08 C 134.80 368.45 142.60 376.39 151.25 381.75 C 159.91 387.10 167.96 393.72 176.75 399.25 C 185.55 404.77 192.02 411.21 201.25 416.75 C 210.49 422.29 216.52 428.92 226.75 434.25 C 236.98 439.58 239.69 448.45 253.00 451.00 C 266.31 453.55 273.64 439.42 271.00 426.00 C 268.36 412.58 272.15 397.86 271.00 384.00 C 269.85 370.14 271.51 355.07 271.00 341.00 C 270.49 326.93 271.20 312.09 271.00 298.00 C 270.80 283.91 271.00 270.07 271.00 256.00
C 214.67 256.00 158.33 256.00 102.00 256.00
C 101.77 263.35 102.30 271.76 102.00 279.00 C 101.70 286.24 102.58 295.15 102.00 302.00 C 101.42 308.85 103.25 319.09 102.00 325.00 C 100.75 330.91 105.38 342.94 101.00 346.00 Z"/>
</g>
<g fill="None" fill-opacity="0.0" stroke="#FC9D01" stroke-opacity="0.98" stroke-width="0.3"><path d="
M 331.00 256.00 
C 321.00 256.00 311.00 256.00 301.00 256.00
C 301.00 270.88 294.50 301.01 316.00 301.00 C 337.50 300.99 331.00 270.89 331.00 256.00 Z"/>
</g>
<g fill="None" fill-opacity="0.0" stroke="#FC9D01" stroke-opacity="1.00" stroke-width="0.3"><path d="
M 391.00 256.00 
C 381.00 256.00 371.00 256.00 361.00 256.00
C 361.00 273.48 360.90 292.69 361.00 310.00 C 361.10 327.31 360.74 347.31 361.01 363.99 C 361.28 380.67 390.72 380.67 391.00 364.00 C 391.28 347.33 390.90 327.31 391.00 310.00 C 391.10 292.69 391.00 273.48 391.00 256.00 Z"/>
</g>
<g fill="None" fill-opacity="0.0" stroke="#FC9D01" stroke-opacity="0.99" stroke-width="0.3"><path d="
M 451.00 256.00 
C 441.00 256.00 431.00 256.00 421.00 256.00
C 421.00 270.87 420.27 291.64 421.08 305.92 C 421.88 320.21 450.11 320.28 451.00 306.00 C 451.89 291.72 451.00 270.88 451.00 256.00 Z"/>
</g>
<g fill="None" fill-opacity="0.0" stroke="#FC9D01" stroke-opacity="0.99" stroke-width="0.3"><path d="
M 512.00 337.00 
L 512.00 256.00
C 502.00 256.00 492.00 256.00 482.00 256.00
C 482.00 269.60 481.36 285.64 482.00 299.00 C 482.64 312.36 479.27 328.18 484.23 339.77 C 489.19 351.36 508.39 346.53 512.00 337.00 Z"/>
</g>
<g fill="#000000" fill-opacity="0.00" stroke="None">
<path d="
M 0.00 175.00 
C 5.37 163.63 15.80 166.74 27.00 166.00 C 38.20 165.26 52.63 167.57 64.00 166.00 C 75.37 164.43 90.11 169.44 101.00 166.00
C 109.85 163.20 116.44 152.65 125.25 148.25 C 134.06 143.84 142.08 136.07 150.70 130.70 C 159.32 125.32 167.31 118.61 176.08 113.08 C 184.85 107.55 191.48 101.23 200.70 95.70 C 209.91 90.16 215.88 83.40 226.08 78.08 C 236.28 72.77 239.06 64.35 252.03 61.03 C 264.99 57.70 273.88 71.56 271.00 85.00 C 268.12 98.44 272.26 113.11 271.00 127.00 C 269.74 140.89 271.55 155.87 271.00 170.00 C 270.45 184.13 271.21 198.77 271.00 213.00 C 270.79 227.23 271.00 241.75 271.00 256.00
C 271.00 270.07 270.80 283.91 271.00 298.00 C 271.20 312.09 270.49 326.93 271.00 341.00 C 271.51 355.07 269.85 370.14 271.00 384.00 C 272.15 397.86 268.36 412.58 271.00 426.00 C 273.64 439.42 266.31 453.55 253.00 451.00 C 239.69 448.45 236.98 439.58 226.75 434.25 C 216.52 428.92 210.49 422.29 201.25 416.75 C 192.02 411.21 185.55 404.77 176.75 399.25 C 167.96 393.72 159.91 387.10 151.25 381.75 C 142.60 376.39 134.80 368.45 125.92 364.08 C 117.03 359.71 109.87 348.80 101.00 346.00
C 90.26 342.60 76.28 347.50 65.00 346.00 C 53.72 344.50 39.20 346.72 28.00 346.00 C 16.80 345.28 5.34 348.60 0.00 337.00
L 0.00 512.00
L 512.00 512.00
L 512.00 337.00
C 508.39 346.53 489.19 351.36 484.23 339.77 C 479.27 328.18 482.64 312.36 482.00 299.00 C 481.36 285.64 482.00 269.60 482.00 256.00
C 482.00 242.39 481.37 226.37 482.00 213.00 C 482.63 199.63 479.29 183.86 484.25 172.25 C 489.21 160.65 508.38 165.48 512.00 175.00
L 512.00 0.00
L 0.00 0.00
L 0.00 175.00
M 391.00 256.00 
C 391.00 273.48 391.10 292.69 391.00 310.00 C 390.90 327.31 391.28 347.33 391.00 364.00 C 390.72 380.67 361.28 380.67 361.01 363.99 C 360.74 347.31 361.10 327.31 361.00 310.00 C 360.90 292.69 361.00 273.48 361.00 256.00
C 361.00 238.52 360.90 219.31 361.00 202.00 C 361.10 184.69 360.72 164.67 361.00 148.00 C 361.28 131.33 390.72 131.33 390.99 148.01 C 391.26 164.69 390.90 184.69 391.00 202.00 C 391.10 219.31 391.00 238.52 391.00 256.00
M 451.00 256.00 
C 451.00 270.88 451.89 291.72 451.00 306.00 C 450.11 320.28 421.88 320.21 421.08 305.92 C 420.27 291.64 421.00 270.87 421.00 256.00
C 421.00 241.12 420.10 220.28 421.00 206.00 C 421.90 191.72 450.12 191.79 450.92 206.08 C 451.73 220.36 451.00 241.12 451.00 256.00
M 331.00 256.00 
C 331.00 270.89 337.50 300.99 316.00 301.00 C 294.50 301.01 301.00 270.88 301.00 256.00
C 301.00 241.11 294.50 211.01 316.00 211.00 C 337.50 210.99 331.00 241.12 331.00 256.00 Z"/>
</g>
<g fill="#7D6BE0" fill-opacity="1.00" stroke="None">
<path d="
M 101.00 166.00 
C 97.88 174.90 102.46 186.51 101.00 196.00 C 99.54 205.49 101.76 216.27 101.00 226.00 C 100.24 235.73 101.57 246.20 101.00 256.00
C 67.33 256.00 33.67 256.00 0.00 256.00
L 0.00 337.00
C 5.34 348.60 16.80 345.28 28.00 346.00 C 39.20 346.72 53.72 344.50 65.00 346.00 C 76.28 347.50 90.26 342.60 101.00 346.00
C 105.38 342.94 100.75 330.91 102.00 325.00 C 103.25 319.09 101.42 308.85 102.00 302.00 C 102.58 295.15 101.70 286.24 102.00 279.00 C 102.30 271.76 101.77 263.35 102.00 256.00
C 158.33 256.00 214.67 256.00 271.00 256.00
C 271.00 241.75 270.79 227.23 271.00 213.00 C 271.21 198.77 270.45 184.13 271.00 170.00 C 271.55 155.87 269.74 140.89 271.00 127.00 C 272.26 113.11 268.12 98.44 271.00 85.00 C 273.88 71.56 264.99 57.70 252.03 61.03 C 239.06 64.35 236.28 72.77 226.08 78.08 C 215.88 83.40 209.91 90.16 200.70 95.70 C 191.48 101.23 184.85 107.55 176.08 113.08 C 167.31 118.61 159.32 125.32 150.70 130.70 C 142.08 136.07 134.06 143.84 125.25 148.25 C 116.44 152.65 109.85 163.20 101.00 166.00 Z"/>
</g>
<g fill="#ECB600" fill-opacity="0.99" stroke="None">
<path d="
M 361.00 256.00 
C 371.00 256.00 381.00 256.00 391.00 256.00
C 391.00 238.52 391.10 219.31 391.00 202.00 C 390.90 184.69 391.26 164.69 390.99 148.01 C 390.72 131.33 361.28 131.33 361.00 148.00 C 360.72 164.67 361.10 184.69 361.00 202.00 C 360.90 219.31 361.00 238.52 361.00 256.00 Z"/>
</g>
<g fill="#988EE1" fill-opacity="1.00" stroke="None">
<path d="
M 0.00 175.00 
L 0.00 256.00
C 33.67 256.00 67.33 256.00 101.00 256.00
C 101.57 246.20 100.24 235.73 101.00 226.00 C 101.76 216.27 99.54 205.49 101.00 196.00 C 102.46 186.51 97.88 174.90 101.00 166.00
C 90.11 169.44 75.37 164.43 64.00 166.00 C 52.63 167.57 38.20 165.26 27.00 166.00 C 15.80 166.74 5.37 163.63 0.00 175.00 Z"/>
</g>
<g fill="#ECB600" fill-opacity="0.99" stroke="None">
<path d="
M 482.00 256.00 
C 492.00 256.00 502.00 256.00 512.00 256.00
L 512.00 175.00
C 508.38 165.48 489.21 160.65 484.25 172.25 C 479.29 183.86 482.63 199.63 482.00 213.00 C 481.37 226.37 482.00 242.39 482.00 256.00 Z"/>
</g>
<g fill="#ECB600" fill-opacity="0.98" stroke="None">
<path d="
M 421.00 256.00 
C 431.00 256.00 441.00 256.00 451.00 256.00
C 451.00 241.12 451.73 220.36 450.92 206.08 C 450.12 191.79 421.90 191.72 421.00 206.00 C 420.10 220.28 421.00 241.12 421.00 256.00 Z"/>
</g>
<g fill="#ECB600" fill-opacity="0.98" stroke="None">
<path d="
M 301.00 256.00 
C 311.00 256.00 321.00 256.00 331.00 256.00
C 331.00 241.12 337.50 210.99 316.00 211.00 C 294.50 211.01 301.00 241.11 301.00 256.00 Z"/>
</g>
<g fill="#6D5ACB" fill-opacity="1.00" stroke="None">
<path d="
M 101.00 346.00 
C 109.87 348.80 117.03 359.71 125.92 364.08 C 134.80 368.45 142.60 376.39 151.25 381.75 C 159.91 387.10 167.96 393.72 176.75 399.25 C 185.55 404.77 192.02 411.21 201.25 416.75 C 210.49 422.29 216.52 428.92 226.75 434.25 C 236.98 439.58 239.69 448.45 253.00 451.00 C 266.31 453.55 273.64 439.42 271.00 426.00 C 268.36 412.58 272.15 397.86 271.00 384.00 C 269.85 370.14 271.51 355.07 271.00 341.00 C 270.49 326.93 271.20 312.09 271.00 298.00 C 270.80 283.91 271.00 270.07 271.00 256.00
C 214.67 256.00 158.33 256.00 102.00 256.00
C 101.77 263.35 102.30 271.76 102.00 279.00 C 101.70 286.24 102.58 295.15 102.00 302.00 C 101.42 308.85 103.25 319.09 102.00 325.00 C 100.75 330.91 105.38 342.94 101.00 346.00 Z"/>
</g>
<g fill="#FC9D01" fill-opacity="0.98" stroke="None">
<path d="
M 331.00 256.00 
C 321.00 256.00 311.00 256.00 301.00 256.00
C 301.00 270.88 294.50 301.01 316.00 301.00 C 337.50 300.99 331.00 270.89 331.00 256.00 Z"/>
</g>
<g fill="#FC9D01" fill-opacity="1.00" stroke="None">
<path d="
M 391.00 256.00 
C 381.00 256.00 371.00 256.00 361.00 256.00
C 361.00 273.48 360.90 292.69 361.00 310.00 C 361.10 327.31 360.74 347.31 361.01 363.99 C 361.28 380.67 390.72 380.67 391.00 364.00 C 391.28 347.33 390.90 327.31 391.00 310.00 C 391.10 292.69 391.00 273.48 391.00 256.00 Z"/>
</g>
<g fill="#FC9D01" fill-opacity="0.99" stroke="None">
<path d="
M 451.00 256.00 
C 441.00 256.00 431.00 256.00 421.00 256.00
C 421.00 270.87 420.27 291.64 421.08 305.92 C 421.88 320.21 450.11 320.28 451.00 306.00 C 451.89 291.72 451.00 270.88 451.00 256.00 Z"/>
</g>
<g fill="#FC9D01" fill-opacity="0.99" stroke="None">
<path d="
M 512.00 337.00 
L 512.00 256.00
C 502.00 256.00 492.00 256.00 482.00 256.00
C 482.00 269.60 481.36 285.64 482.00 299.00 C 482.64 312.36 479.27 328.18 484.23 339.77 C 489.19 351.36 508.39 346.53 512.00 337.00 Z"/>
</g>
</svg>